<svg width="18.000000" height="18.000000" viewBox="0 0 18 18" fill="none" xmlns="http://www.w3.org/2000/svg" xmlns:xlink="http://www.w3.org/1999/xlink">
	<desc>
			Created with Pixso.
	</desc>
	<defs/>
	<path id="Union" d="M9 0C4.12109 0 0 4.12109 0 9C0 11.8701 1.43286 14.4702 3.6001 16.1316L3.6001 16.2L3.69189 16.2C5.19312 17.3206 7.03174 18 9 18C10.9683 18 12.8069 17.3206 14.3081 16.2L14.3999 16.2L14.3999 16.1316C16.5671 14.4702 18 11.8711 18 9C18 4.12109 13.8789 0 9 0ZM14.0491 14.0769C13.7058 13.2595 13.1289 12.5618 12.3909 12.0706C11.6531 11.5793 10.7864 11.3169 9.8999 11.3157L8.1001 11.3157C7.21362 11.3169 6.34692 11.5793 5.60913 12.0706C4.87109 12.5618 4.29419 13.2595 3.95093 14.0769C2.63062 12.7639 1.80005 10.9585 1.80005 9C1.80005 5.09668 5.09668 1.80005 9 1.80005C12.9033 1.80005 16.2 5.09668 16.2 9C16.2 10.9585 15.3694 12.7639 14.0491 14.0769ZM5.3999 7.19995C5.3999 5.14795 6.948 3.6001 9 3.6001C11.052 3.6001 12.6001 5.14795 12.6001 7.19995C12.6001 9.25195 11.052 10.8 9 10.8C6.948 10.8 5.3999 9.25195 5.3999 7.19995ZM7.19995 7.19995C7.19995 8.26025 7.9397 9 9 9C10.0603 9 10.8 8.26025 10.8 7.19995C10.8 6.13989 10.0603 5.3999 9 5.3999C7.9397 5.3999 7.19995 6.13989 7.19995 7.19995ZM5.46655 15.2344C5.59912 14.6343 5.93237 14.0974 6.41113 13.7124C6.88989 13.3271 7.4856 13.1167 8.1001 13.1157L9.8999 13.1157C10.5144 13.1169 11.1101 13.3274 11.5886 13.7126C12.0674 14.0977 12.4006 14.6345 12.5334 15.2344C11.4822 15.8435 10.2744 16.2 9 16.2C7.72559 16.2 6.51782 15.8435 5.46655 15.2344Z" clip-rule="evenodd" fill="#9B9B9B" fill-opacity="1.000000" fill-rule="evenodd"/>
</svg>

